<svg data-v-ed206b5a="" xmlns="http://www.w3.org/2000/svg" width="61.969" height="48" class="icon w-6 h-6" viewBox="0 0 1322 1024"><path fill="#FFF" d="M495.899 634.906c-17.305 0-31.252 13.948-31.252 31.252s13.947 31.252 31.252 31.252 31.252-13.947 31.252-31.252c0-17.304-13.947-31.252-31.252-31.252zm294.957 93.756c-17.305 0-31.252 13.947-31.252 31.252s13.947 31.252 31.252 31.252 31.252-13.947 31.252-31.252c0-17.046-13.948-30.993-31.252-31.252z"></path><path fill="#FFF" d="M1262.993 719.622c-13.43-8.265-28.928-13.43-44.683-14.98 34.868-84.974 57.08-196.293-18.596-306.837-115.193-168.658-280.751-256.731-491.766-260.864-60.18-1.291-130.949 1.55-205.85 4.65-87.04 3.357-203.009 8.006-281.526 1.549 15.755-8.523 32.543-16.788 47.007-23.762 55.53-27.12 98.921-48.04 84.458-85.233-7.749-21.695-30.22-33.06-67.412-34.093-78-1.808-246.658 43.391-276.877 119.584-17.046 42.875-19.887 125.525 152.903 198.876 71.027 30.22 271.97 66.895 349.453 74.644 17.564 1.55 34.868 5.165 51.398 11.364-17.821 11.623-35.9 24.02-54.239 36.418-31.768-18.08-83.94-39.517-122.683-13.173-14.464 9.298-23.504 25.053-24.02 42.358-.517 21.18 12.397 42.1 26.861 58.63-57.08 45.716-103.312 89.882-119.842 123.975-18.338 41.841-25.828 110.544 8.523 177.439 43.391 84.974 138.955 144.12 284.626 176.147 190.352 41.583 354.619 4.133 463.355-53.206 60.438-32.027 103.57-69.994 124.233-103.829 6.457 2.067 12.914 4.133 19.63 6.2 9.298 2.84 18.596 5.681 27.377 8.78 28.67 10.074 60.696 8.524 85.233-3.615l1.291-.775c17.822-9.04 31.51-25.053 37.71-44.166 15.238-51.14-29.445-79.034-56.564-96.08zM451.216 479.938l-17.304 12.656c-5.166-5.166-9.815-11.106-13.43-17.563 6.714-2.067 18.337.258 30.734 4.907zm811.777 318.202c-1.292 3.874-4.133 6.973-9.298 9.814-10.331 5.166-25.57 5.424-39.259.775-9.298-3.357-19.37-6.457-29.444-9.556-18.596-5.682-49.848-15.239-55.789-22.47-9.814-12.915-28.152-15.756-41.324-5.941s-15.756 28.153-5.94 41.325c3.615 4.39 7.49 8.265 12.138 11.623-44.94 62.245-242.267 186.22-521.469 125.007-125.782-27.636-210.498-77.742-244.85-145.412-24.795-48.815-19.112-98.921-7.232-126.299C354.62 605.98 601.278 442.487 758.83 349.764c13.947-8.265 18.596-26.344 10.331-40.291s-27.12-19.63-40.292-10.332c-12.655 7.49-55.788 33.06-111.06 68.187-18.597-12.656-50.882-27.895-102.538-33.06-81.875-8.265-270.936-44.425-332.149-70.253-43.65-18.596-143.087-67.67-121.134-122.941 5.166-12.914 29.186-33.577 81.1-53.465 35.385-13.43 72.32-22.47 109.77-27.119l-11.623 5.682c-35.384 17.305-73.868 36.418-99.954 59.146-1.808-1.033-3.616-2.324-5.166-3.874-10.848-11.622-29.186-12.397-41.067-1.291l-.516.516c-11.881 11.106-12.14 29.703-1.033 41.584 10.59 11.106 26.086 19.37 45.715 25.57.775.258 1.292.516 2.067.774 68.702 21.18 190.61 18.596 362.367 11.623 74.127-2.841 144.121-5.682 202.493-4.65 193.71 3.875 339.122 80.843 444.759 235.553 64.829 95.047 41.583 188.545 4.39 269.903-4.648-3.616-9.039-7.748-12.655-12.139-10.331-12.397-28.67-14.464-41.325-4.649-12.656 10.073-14.722 28.67-4.649 41.325 5.94 7.49 36.676 42.875 74.643 39.775h2.066c1.292-.258 2.325 0 3.616-.258 25.828-4.65 42.358-3.616 57.597 6.199 20.404 12.914 30.219 20.404 28.41 26.86z"></path></svg>
