<svg xmlns="http://www.w3.org/2000/svg" xmlns:osb="http://www.openswatchbook.org/uri/2009/osb" xmlns:svg="http://www.w3.org/2000/svg" xmlns:xlink="http://www.w3.org/1999/xlink" id="svg8" width="488.202" height="489.008" version="1.1" viewBox="0 0 129.17 129.383"><defs id="defs2"><linearGradient id="linearGradient4293"><stop style="stop-color:#025984;stop-opacity:1" id="stop4295" offset="0"/><stop style="stop-color:#007ba3;stop-opacity:1" id="stop4297" offset="1"/></linearGradient><metadata id="CorelCorpID_0Corel-Layer"/><style id="style6" type="text/css"/><defs id="defs10"><rect id="XMLID_24_" width="737.343" height="365.832" x="0" y="0"/></defs><clipPath id="XMLID_33_"><use id="use14" width="587" height="161" x="0" y="0" xlink:href="#XMLID_24_"/></clipPath><defs id="defs18"><rect id="XMLID_23_" width="737.343" height="365.832" x="0" y="0"/></defs><clipPath id="XMLID_34_"><use id="use22" width="587" height="161" x="0" y="0" xlink:href="#XMLID_23_"/></clipPath><defs id="defs26"><rect id="XMLID_22_" width="737.343" height="365.832" x="0" y="0"/></defs><clipPath id="XMLID_35_"><use id="use30" width="587" height="161" x="0" y="0" xlink:href="#XMLID_22_"/></clipPath><defs id="defs34"><polyline id="XMLID_21_" points="32.162 78.613 32.162 238.962 618.639 238.962 618.639 78.613"/></defs><clipPath id="XMLID_36_"><use id="use38" width="587" height="161" x="0" y="0" xlink:href="#XMLID_21_"/></clipPath><linearGradient id="linearGradient4299" x1="1574.667" x2="2362" y1="-326.5" y2="-326.5" gradientTransform="matrix(0.13229165,0,0,0.13229165,-10.577124,180.42222)" gradientUnits="userSpaceOnUse" xlink:href="#linearGradient4293"/><rect id="rect1409" width="737.343" height="365.832" x="0" y="0"/><rect id="rect1411" width="737.343" height="365.832" x="0" y="0"/><rect id="rect1413" width="737.343" height="365.832" x="0" y="0"/><polyline id="polyline1415" points="32.162 78.613 32.162 238.962 618.639 238.962 618.639 78.613"/><linearGradient id="linearGradient4974" osb:paint="solid"><stop style="stop-color:#000;stop-opacity:1" id="stop4972" offset="0"/></linearGradient><linearGradient id="linearGradient2638"><stop style="stop-color:#fff;stop-opacity:1" id="stop2634-5" offset="0"/><stop style="stop-color:#000;stop-opacity:1" id="stop2636" offset="1"/></linearGradient><linearGradient id="linearGradient2578"><stop style="stop-color:#161616;stop-opacity:1" id="stop2574" offset="0"/><stop style="stop-color:#444;stop-opacity:1" id="stop2580" offset=".206"/><stop style="stop-color:#000;stop-opacity:1" id="stop2576" offset="1"/></linearGradient><linearGradient id="linearGradient2517"><stop style="stop-color:#000;stop-opacity:1" id="stop2513" offset="0"/><stop style="stop-color:#fff;stop-opacity:1" id="stop2515" offset="1"/></linearGradient><linearGradient id="linearGradient934"><stop style="stop-color:#fff;stop-opacity:1" id="stop930" offset="0"/><stop style="stop-color:#a08;stop-opacity:1" id="stop932" offset="1"/></linearGradient><linearGradient id="linearGradient1787" x1="240" x2="240" y1="125.631" y2="234.369" gradientTransform="matrix(1.3703319,0,0,1.3703319,-351.93619,-2.0887796)" gradientUnits="userSpaceOnUse"><stop id="stop1783" offset="0" stop-color="#fff" style="stop-color:#fff;stop-opacity:1"/><stop id="stop1785" offset="1" stop-color="#bc0e0e" style="stop-color:#921e78;stop-opacity:1"/></linearGradient><linearGradient id="linearGradient1566"><stop style="stop-color:#ef3001;stop-opacity:1" id="stop1562" offset="0"/><stop style="stop-color:#b61b11;stop-opacity:1" id="stop1564" offset="1"/></linearGradient><linearGradient id="linearGradient1550"><stop style="stop-color:#a1929c;stop-opacity:1" id="stop1546" offset="0"/><stop style="stop-color:#2f2f2a;stop-opacity:1" id="stop1548" offset="1"/></linearGradient><linearGradient id="linearGradient985"><stop style="stop-color:#4c6f76;stop-opacity:1" id="stop981" offset="0"/><stop style="stop-color:#8dffff;stop-opacity:0" id="stop983" offset="1"/></linearGradient><linearGradient id="color-1" x1="240" x2="240" y1="125.631" y2="234.369" gradientTransform="matrix(1.3703319,0,0,1.3703319,-351.93619,-2.0887796)" gradientUnits="userSpaceOnUse"><stop id="stop833" offset="0" stop-color="#fff" style="stop-color:#fff;stop-opacity:0"/><stop id="stop835" offset="1" stop-color="#bc0e0e" style="stop-color:#921e78;stop-opacity:1"/></linearGradient><linearGradient id="color-1-5" x1="240" x2="240" y1="125.631" y2="234.369" gradientTransform="matrix(1.0579043,0,0,1.0579043,-239.2996,32.226013)" gradientUnits="userSpaceOnUse"><stop id="stop927" offset="0" stop-color="#fff" style="stop-color:#afe9fe;stop-opacity:1"/><stop id="stop929" offset="1" stop-color="#bc0e0e" style="stop-color:#09a6e1;stop-opacity:1"/></linearGradient><linearGradient id="linearGradient975" x1="-99.004" x2="-99.004" y1="175.585" y2="312.962" gradientUnits="userSpaceOnUse" xlink:href="#linearGradient985"/><filter style="color-interpolation-filters:sRGB" id="filter1318" width="1.035" height="1.035" x="-.018" y="-.018"><feGaussianBlur id="feGaussianBlur1320" stdDeviation=".596"/></filter><radialGradient id="radialGradient1544" cx="15.305" cy="245.762" r="30.335" fx="15.305" fy="245.762" gradientTransform="matrix(1.3731852,-0.36795203,0.35116832,1.310578,-94.489276,-68.130925)" gradientUnits="userSpaceOnUse" xlink:href="#linearGradient1550"/><radialGradient id="radialGradient1560" cx="81.771" cy="260.263" r="15.368" fx="81.771" fy="260.263" gradientTransform="matrix(7.6737587,-4.4304466,3.6985151,6.4060097,-1446.3984,-1073.5222)" gradientUnits="userSpaceOnUse" xlink:href="#linearGradient1566"/><linearGradient id="linearGradient1587" x1="1.347" x2="92.517" y1="239.466" y2="239.466" gradientUnits="userSpaceOnUse" xlink:href="#color-1"/><linearGradient id="linearGradient1779" x1="1.347" x2="59.16" y1="239.466" y2="239.466" gradientTransform="matrix(4.6166611,0,0,4.6166611,-265.09901,-955.52703)" gradientUnits="userSpaceOnUse" xlink:href="#linearGradient1787"/><radialGradient id="radialGradient1781" cx="15.305" cy="245.762" r="30.335" fx="15.305" fy="245.762" gradientTransform="matrix(6.3395307,-1.6987098,1.6212251,6.0504945,-701.32397,-1270.0644)" gradientUnits="userSpaceOnUse" xlink:href="#linearGradient1550"/><linearGradient id="linearGradient928" x1="-258.882" x2="81.643" y1="150.008" y2="150.008" gradientUnits="userSpaceOnUse" xlink:href="#linearGradient934"/><linearGradient id="linearGradient1028"><stop style="stop-color:#0fb1fd;stop-opacity:1" id="stop1024" offset="0"/><stop style="stop-color:#1790ff;stop-opacity:1" id="stop1026" offset="1"/></linearGradient><linearGradient id="linearGradient-1" x1="107.289" x2="107.289" y1="0" y2="214.727" gradientTransform="matrix(0.80761689,0,0,0.56785562,71.966667,124.35417)" gradientUnits="userSpaceOnUse"><stop id="stop833-0" offset="0%" stop-color="#E52D27"/><stop id="stop835-0" offset="100%" stop-color="#BF171D"/></linearGradient><linearGradient id="linearGradient1030" x1="119.281" x2="186.911" y1="194.351" y2="267.54" gradientTransform="matrix(9.2538518,0,0,9.3227835,-368.74537,-1634.8138)" gradientUnits="userSpaceOnUse" xlink:href="#linearGradient1028"/><linearGradient id="linearGradient3461"><stop style="stop-color:#a1792d;stop-opacity:1" id="stop3457" offset="0"/><stop style="stop-color:#ecd275;stop-opacity:1" id="stop3465" offset=".495"/><stop style="stop-color:#9d773a;stop-opacity:1" id="stop3459" offset="1"/></linearGradient><linearGradient id="linearGradient3463" x1="85.023" x2="85.767" y1="33.813" y2="107.687" gradientTransform="matrix(0.86202584,0,0,0.85528311,13.869196,10.238727)" gradientUnits="userSpaceOnUse" xlink:href="#linearGradient3461"/><linearGradient id="linearGradient3425"><stop style="stop-color:#6ce713;stop-opacity:1" id="stop3421" offset="0"/><stop style="stop-color:#d0fd01;stop-opacity:1" id="stop3423" offset="1"/></linearGradient><linearGradient id="linearGradient3427" x1="152.898" x2="153.432" y1="46.028" y2="123.798" gradientTransform="matrix(3.0304064,0,0,3.0304064,782.04491,302.66129)" gradientUnits="userSpaceOnUse" xlink:href="#linearGradient3425"/><linearGradient id="SVGID_10_" x1="1.76" x2="1.76" y1="31.179" y2="31.179" gradientTransform="translate(-1.554,-1.482)" gradientUnits="userSpaceOnUse"><stop id="stop3673" style="stop-color:#669" offset=".233"/><stop id="stop3675" style="stop-color:#a7b3d9" offset=".991"/></linearGradient><linearGradient id="SVGID_11_" x1="48.872" x2="45.38" y1="5.816" y2="44.617" gradientUnits="userSpaceOnUse"><stop id="stop3680" style="stop-color:#aaacd2" offset="0"/><stop id="stop3682" style="stop-color:#fcfafb" offset=".626"/></linearGradient><linearGradient id="SVGID_12_" x1="70.329" x2="66.837" y1="1.329" y2="40.131" gradientUnits="userSpaceOnUse"><stop id="stop3687" style="stop-color:#aaacd2" offset=".674"/><stop id="stop3689" style="stop-color:#fcfafb" offset="1"/></linearGradient><linearGradient id="SVGID_9_" x1="54.954" x2="69.759" y1="22.781" y2="29.984" gradientUnits="userSpaceOnUse"><stop id="stop3660" style="stop-color:#9ea5d3" offset=".037"/><stop id="stop3662" style="stop-color:#7675ae" offset=".902"/></linearGradient><linearGradient id="SVGID_8_" x1="20.316" x2="43.634" y1="84.258" y2="96.735" gradientUnits="userSpaceOnUse"><stop id="stop3652" style="stop-color:#6e70a9" offset="0"/><stop id="stop3654" style="stop-color:#514a8e" offset=".969"/></linearGradient><linearGradient id="SVGID_6_" x1="6.173" x2="64.814" y1="77.855" y2="61.557" gradientUnits="userSpaceOnUse"><stop id="stop3632" style="stop-color:#669" offset=".233"/><stop id="stop3634" style="stop-color:#a7b3d9" offset=".724"/></linearGradient><linearGradient id="SVGID_7_" x1="7.187" x2="65.826" y1="81.496" y2="65.199" gradientUnits="userSpaceOnUse"><stop id="stop3639" style="stop-color:#669" offset=".233"/><stop id="stop3641" style="stop-color:#a7b3d9" offset=".991"/></linearGradient><linearGradient id="SVGID_5_" x1="52.778" x2="52.48" y1="119.889" y2="100.817" gradientUnits="userSpaceOnUse"><stop id="stop3610" style="stop-color:#4c407e" offset=".11"/><stop id="stop3612" style="stop-color:#669" offset=".89"/><stop id="stop3614" style="stop-color:#a7b3d9" offset="1"/><stop id="stop3616" style="stop-color:#9ba5cd" offset="1"/></linearGradient><linearGradient id="SVGID_4_" x1="62.955" x2="105.734" y1="65.585" y2="93.668" gradientUnits="userSpaceOnUse"><stop id="stop3602" style="stop-color:#4c5284" offset="0"/><stop id="stop3604" style="stop-color:#8789bc" offset="1"/></linearGradient><linearGradient id="SVGID_3_" x1="52.88" x2="89.44" y1="90.374" y2="90.374" gradientUnits="userSpaceOnUse"><stop id="stop3594" style="stop-color:#140f2d" offset="0"/><stop id="stop3596" style="stop-color:#3b3c75" offset="1"/></linearGradient><linearGradient id="SVGID_2_" x1="24.944" x2="101.916" y1="89.105" y2="76.3" gradientUnits="userSpaceOnUse"><stop id="stop3575" style="stop-color:#fff" offset=".037"/><stop id="stop3577" style="stop-color:#898cbf" offset=".896"/></linearGradient><clipPath id="clp9"><path id="path17491" d="m 582.39,1071.7 -3.63,2.1 v 0.3 l 3.63,-2.1 v -0.3"/></clipPath><clipPath id="clp8"><path id="path17485" d="M 564.1,1054.8 H 660 v 26.2 h -95.9 z"/></clipPath><clipPath id="clp14"><path id="path17527" d="m 584.85,1073.4 -6.11,3.6 -8.06,-4.7 2.49,-1.5 5.59,3.3 3.63,-2.1 2.46,1.4"/></clipPath><clipPath id="clp13"><path id="path17521" d="M 564.1,1054.8 H 660 v 26.2 h -95.9 z"/></clipPath><clipPath id="clp19"><path id="path17561" d="m 573.17,1064.4 5.61,-3.2 5.6,3.2 -0.28,0.2 -5.35,-3.1 -5.3,3.1 -0.28,-0.2"/></clipPath><clipPath id="clp18"><path id="path17555" d="M 564.1,1054.8 H 660 v 26.2 h -95.9 z"/></clipPath><clipPath id="clp24"><path id="path17595" d="m 584.38,1064.4 v 3.4 l -0.28,-0.2 v -3.1 l 0.28,-0.1"/></clipPath><clipPath id="clp23"><path id="path17589" d="M 564.1,1054.8 H 660 v 26.2 h -95.9 z"/></clipPath><clipPath id="clp29"><path id="path17629" d="m 578.75,1063.3 v 4.3 l -3.77,2.2 v -4.4 l 3.77,-2.1"/></clipPath><clipPath id="clp28"><path id="path17623" d="M 564.1,1054.8 H 660 v 26.2 h -95.9 z"/></clipPath><clipPath id="clp34"><path id="path17663" d="m 578.75,1067.6 8.09,4.7 v -9.3 l -8.06,-4.7 v 2.9 l 5.6,3.2 v 3.4 l -1.83,-1.1 v -1.3 l -3.8,-2.1 v 4.3"/></clipPath><clipPath id="clp33"><path id="path17657" d="M 564.1,1054.8 H 660 v 26.2 h -95.9 z"/></clipPath><clipPath id="clp39"><path id="path17697" d="m 578.75,1067.6 -3.77,2.2 3.77,2.2 3.54,-2.1 4.28,2.5 0.27,-0.1 -8.09,-4.7"/></clipPath><clipPath id="clp38"><path id="path17691" d="M 564.1,1054.8 H 660 v 26.2 h -95.9 z"/></clipPath><clipPath id="clp44"><path id="path17731" d="m 570.68,1072.3 -0.01,-9.3 8.11,-4.7 v 2.9 l -5.61,3.2 v 6.4 l -2.49,1.5"/></clipPath><clipPath id="clp43"><path id="path17725" d="M 564.1,1054.8 H 660 v 26.2 h -95.9 z"/></clipPath><clipPath id="clipPath107145"><path id="path107147" d="M 564.1,1054.8 H 660 v 26.2 h -95.9 z"/></clipPath><clipPath id="clipPath107115"><path id="path107117" d="M 564.1,1054.8 H 660 v 26.2 h -95.9 z"/></clipPath><clipPath id="clipPath107100"><path id="path107102" d="M 564.1,1054.8 H 660 v 26.2 h -95.9 z"/></clipPath><clipPath id="clipPath107085"><path id="path107087" d="M 564.1,1054.8 H 660 v 26.2 h -95.9 z"/></clipPath><clipPath id="clipPath107054"><path id="path107056" d="M 564.1,1054.8 H 660 v 26.2 h -95.9 z"/></clipPath><clipPath id="clipPath107151"><path id="path107153" d="m 578.75,1067.6 -3.77,2.2 3.77,2.2 3.54,-2.1 4.28,2.5 0.27,-0.1 -8.09,-4.7"/></clipPath><clipPath id="clipPath107121"><path id="path107123" d="m 578.75,1063.3 v 4.3 l -3.77,2.2 v -4.4 l 3.77,-2.1"/></clipPath><clipPath id="clipPath107106"><path id="path107108" d="m 584.38,1064.4 v 3.4 l -0.28,-0.2 v -3.1 l 0.28,-0.1"/></clipPath><clipPath id="clipPath107091"><path id="path107093" d="m 573.17,1064.4 5.61,-3.2 5.6,3.2 -0.28,0.2 -5.35,-3.1 -5.3,3.1 -0.28,-0.2"/></clipPath><clipPath id="clipPath107060"><path id="path107062" d="m 582.39,1071.7 -3.63,2.1 v 0.3 l 3.63,-2.1 v -0.3"/></clipPath><linearGradient id="linearGradient2519" x1="1546.779" x2="2133.398" y1="805.783" y2="805.783" gradientUnits="userSpaceOnUse" xlink:href="#linearGradient2517"/><linearGradient id="linearGradient2568" x1="1598.205" x2="2082.76" y1="785.165" y2="785.165" gradientTransform="translate(-0.05097105,-0.16290395)" gradientUnits="userSpaceOnUse" xlink:href="#linearGradient2578"/><linearGradient id="linearGradient2640" x1="1708.827" x2="2035.822" y1="673.983" y2="673.983" gradientUnits="userSpaceOnUse" xlink:href="#linearGradient2638"/><filter style="color-interpolation-filters:sRGB" id="filter1318-5" width="1.035" height="1.035" x="-.018" y="-.018"><feGaussianBlur id="feGaussianBlur1320-8" stdDeviation=".596"/></filter><radialGradient id="radialGradient1544-0" cx="15.305" cy="245.762" r="30.335" fx="15.305" fy="245.762" gradientTransform="matrix(1.3731852,-0.36795203,0.35116832,1.310578,-94.489276,-68.130925)" gradientUnits="userSpaceOnUse" xlink:href="#linearGradient1550"/><radialGradient id="radialGradient1560-0" cx="81.771" cy="260.263" r="15.368" fx="81.771" fy="260.263" gradientTransform="matrix(7.6737587,-4.4304466,3.6985151,6.4060097,-1446.3984,-1073.5222)" gradientUnits="userSpaceOnUse" xlink:href="#linearGradient1566"/><radialGradient id="radialGradient1781-8" cx="15.305" cy="245.762" r="30.335" fx="15.305" fy="245.762" gradientTransform="matrix(6.3395307,-1.6987098,1.6212251,6.0504945,-701.32397,-1270.0644)" gradientUnits="userSpaceOnUse" xlink:href="#linearGradient1550"/><linearGradient id="SVGID_11_-4" x1="48.872" x2="45.38" y1="5.816" y2="44.617" gradientTransform="matrix(1.2565501,0,0,1.2565501,1428.8195,878.48407)" gradientUnits="userSpaceOnUse"><stop id="stop3680-56" style="stop-color:#aaacd2" offset="0"/><stop id="stop3682-9" style="stop-color:#fcfafb" offset=".626"/></linearGradient><linearGradient id="SVGID_12_-4" x1="70.329" x2="66.837" y1="1.329" y2="40.131" gradientTransform="matrix(1.2565501,0,0,1.2565501,1428.8195,878.48407)" gradientUnits="userSpaceOnUse"><stop id="stop3687-6" style="stop-color:#aaacd2" offset=".674"/><stop id="stop3689-0" style="stop-color:#fcfafb" offset="1"/></linearGradient><linearGradient id="SVGID_9_-6" x1="54.954" x2="69.759" y1="22.781" y2="29.984" gradientTransform="matrix(1.2565501,0,0,1.2565501,1428.8195,878.48407)" gradientUnits="userSpaceOnUse"><stop id="stop3660-2" style="stop-color:#9ea5d3" offset=".037"/><stop id="stop3662-3" style="stop-color:#7675ae" offset=".902"/></linearGradient><linearGradient id="SVGID_8_-6" x1="20.316" x2="43.634" y1="84.258" y2="96.735" gradientTransform="matrix(1.2565501,0,0,1.2565501,1428.8195,878.48407)" gradientUnits="userSpaceOnUse"><stop id="stop3652-4" style="stop-color:#6e70a9" offset="0"/><stop id="stop3654-0" style="stop-color:#514a8e" offset=".969"/></linearGradient><linearGradient id="SVGID_6_-00" x1="6.173" x2="64.814" y1="77.855" y2="61.557" gradientTransform="matrix(1.2565501,0,0,1.2565501,1428.8195,878.48407)" gradientUnits="userSpaceOnUse"><stop id="stop3632-0" style="stop-color:#669" offset=".233"/><stop id="stop3634-5" style="stop-color:#a7b3d9" offset=".724"/></linearGradient><linearGradient id="SVGID_7_-3" x1="7.187" x2="65.826" y1="81.496" y2="65.199" gradientTransform="matrix(1.2565501,0,0,1.2565501,1428.8195,878.48407)" gradientUnits="userSpaceOnUse"><stop id="stop3639-08" style="stop-color:#669" offset=".233"/><stop id="stop3641-8" style="stop-color:#a7b3d9" offset=".991"/></linearGradient><linearGradient id="SVGID_5_-1" x1="52.778" x2="52.48" y1="119.889" y2="100.817" gradientTransform="matrix(1.2565501,0,0,1.2565501,1428.8195,878.48407)" gradientUnits="userSpaceOnUse"><stop id="stop3610-6" style="stop-color:#4c407e" offset=".11"/><stop id="stop3612-8" style="stop-color:#669" offset=".89"/><stop id="stop3614-8" style="stop-color:#a7b3d9" offset="1"/><stop id="stop3616-9" style="stop-color:#9ba5cd" offset="1"/></linearGradient><linearGradient id="SVGID_4_-9" x1="62.955" x2="105.734" y1="65.585" y2="93.668" gradientTransform="matrix(1.2565501,0,0,1.2565501,1428.8195,878.48407)" gradientUnits="userSpaceOnUse"><stop id="stop3602-8" style="stop-color:#4c5284" offset="0"/><stop id="stop3604-7" style="stop-color:#8789bc" offset="1"/></linearGradient><linearGradient id="SVGID_3_-9" x1="52.88" x2="89.44" y1="90.374" y2="90.374" gradientTransform="matrix(1.2565501,0,0,1.2565501,1428.8195,878.48407)" gradientUnits="userSpaceOnUse"><stop id="stop3594-5" style="stop-color:#140f2d" offset="0"/><stop id="stop3596-61" style="stop-color:#3b3c75" offset="1"/></linearGradient><linearGradient id="SVGID_2_-1" x1="24.944" x2="101.916" y1="89.105" y2="76.3" gradientTransform="matrix(1.2565501,0,0,1.2565501,1428.8195,878.48407)" gradientUnits="userSpaceOnUse"><stop id="stop3575-1" style="stop-color:#fff" offset=".037"/><stop id="stop3577-5" style="stop-color:#898cbf" offset=".896"/></linearGradient><clipPath id="clp9-7"><path id="path17491-5" d="m 582.39,1071.7 -3.63,2.1 v 0.3 l 3.63,-2.1 v -0.3"/></clipPath><clipPath id="clp8-2"><path id="path17485-3" d="M 564.1,1054.8 H 660 v 26.2 h -95.9 z"/></clipPath><clipPath id="clp14-3"><path id="path17527-9" d="m 584.85,1073.4 -6.11,3.6 -8.06,-4.7 2.49,-1.5 5.59,3.3 3.63,-2.1 2.46,1.4"/></clipPath><clipPath id="clp13-2"><path id="path17521-8" d="M 564.1,1054.8 H 660 v 26.2 h -95.9 z"/></clipPath><clipPath id="clp19-8"><path id="path17561-4" d="m 573.17,1064.4 5.61,-3.2 5.6,3.2 -0.28,0.2 -5.35,-3.1 -5.3,3.1 -0.28,-0.2"/></clipPath><clipPath id="clp18-2"><path id="path17555-4" d="M 564.1,1054.8 H 660 v 26.2 h -95.9 z"/></clipPath><clipPath id="clp24-5"><path id="path17595-0" d="m 584.38,1064.4 v 3.4 l -0.28,-0.2 v -3.1 l 0.28,-0.1"/></clipPath><clipPath id="clp23-3"><path id="path17589-8" d="M 564.1,1054.8 H 660 v 26.2 h -95.9 z"/></clipPath><clipPath id="clp29-3"><path id="path17629-1" d="m 578.75,1063.3 v 4.3 l -3.77,2.2 v -4.4 l 3.77,-2.1"/></clipPath><clipPath id="clp28-2"><path id="path17623-3" d="M 564.1,1054.8 H 660 v 26.2 h -95.9 z"/></clipPath><clipPath id="clp34-8"><path id="path17663-4" d="m 578.75,1067.6 8.09,4.7 v -9.3 l -8.06,-4.7 v 2.9 l 5.6,3.2 v 3.4 l -1.83,-1.1 v -1.3 l -3.8,-2.1 v 4.3"/></clipPath><clipPath id="clp33-4"><path id="path17657-0" d="M 564.1,1054.8 H 660 v 26.2 h -95.9 z"/></clipPath><clipPath id="clp39-2"><path id="path17697-5" d="m 578.75,1067.6 -3.77,2.2 3.77,2.2 3.54,-2.1 4.28,2.5 0.27,-0.1 -8.09,-4.7"/></clipPath><clipPath id="clp38-6"><path id="path17691-8" d="M 564.1,1054.8 H 660 v 26.2 h -95.9 z"/></clipPath><clipPath id="clp44-1"><path id="path17731-7" d="m 570.68,1072.3 -0.01,-9.3 8.11,-4.7 v 2.9 l -5.61,3.2 v 6.4 l -2.49,1.5"/></clipPath><clipPath id="clp43-3"><path id="path17725-2" d="M 564.1,1054.8 H 660 v 26.2 h -95.9 z"/></clipPath><clipPath id="clipPath107145-3"><path id="path107147-1" d="M 564.1,1054.8 H 660 v 26.2 h -95.9 z"/></clipPath><clipPath id="clipPath107115-4"><path id="path107117-4" d="M 564.1,1054.8 H 660 v 26.2 h -95.9 z"/></clipPath><clipPath id="clipPath107100-5"><path id="path107102-2" d="M 564.1,1054.8 H 660 v 26.2 h -95.9 z"/></clipPath><clipPath id="clipPath107085-2"><path id="path107087-5" d="M 564.1,1054.8 H 660 v 26.2 h -95.9 z"/></clipPath><clipPath id="clipPath107054-3"><path id="path107056-3" d="M 564.1,1054.8 H 660 v 26.2 h -95.9 z"/></clipPath><clipPath id="clipPath107151-6"><path id="path107153-8" d="m 578.75,1067.6 -3.77,2.2 3.77,2.2 3.54,-2.1 4.28,2.5 0.27,-0.1 -8.09,-4.7"/></clipPath><clipPath id="clipPath107121-7"><path id="path107123-8" d="m 578.75,1063.3 v 4.3 l -3.77,2.2 v -4.4 l 3.77,-2.1"/></clipPath><clipPath id="clipPath107106-1"><path id="path107108-1" d="m 584.38,1064.4 v 3.4 l -0.28,-0.2 v -3.1 l 0.28,-0.1"/></clipPath><clipPath id="clipPath107091-2"><path id="path107093-1" d="m 573.17,1064.4 5.61,-3.2 5.6,3.2 -0.28,0.2 -5.35,-3.1 -5.3,3.1 -0.28,-0.2"/></clipPath><clipPath id="clipPath107060-0"><path id="path107062-3" d="m 582.39,1071.7 -3.63,2.1 v 0.3 l 3.63,-2.1 v -0.3"/></clipPath><linearGradient id="SVGID_1_-4" x1="-16.388" x2="4.8" y1="123.179" y2="96.616" gradientUnits="userSpaceOnUse"><stop offset=".54" style="stop-color:#4f5286" id="stop3513-4"/><stop offset=".785" style="stop-color:#8788bd" id="stop3515-2"/></linearGradient><filter style="color-interpolation-filters:sRGB" id="filter1318-8" width="1.035" height="1.035" x="-.018" y="-.018"><feGaussianBlur id="feGaussianBlur1320-0" stdDeviation=".596"/></filter><radialGradient id="radialGradient1544-5" cx="15.305" cy="245.762" r="30.335" fx="15.305" fy="245.762" gradientTransform="matrix(1.3731852,-0.36795203,0.35116832,1.310578,-94.489276,-68.130925)" gradientUnits="userSpaceOnUse" xlink:href="#linearGradient1550"/><radialGradient id="radialGradient1560-5" cx="81.771" cy="260.263" r="15.368" fx="81.771" fy="260.263" gradientTransform="matrix(7.6737587,-4.4304466,3.6985151,6.4060097,-1446.3984,-1073.5222)" gradientUnits="userSpaceOnUse" xlink:href="#linearGradient1566"/><radialGradient id="radialGradient1781-7" cx="15.305" cy="245.762" r="30.335" fx="15.305" fy="245.762" gradientTransform="matrix(6.3395307,-1.6987098,1.6212251,6.0504945,-701.32397,-1270.0644)" gradientUnits="userSpaceOnUse" xlink:href="#linearGradient1550"/><clipPath id="clp9-0"><path id="path17491-2" d="m 582.39,1071.7 -3.63,2.1 v 0.3 l 3.63,-2.1 v -0.3"/></clipPath><clipPath id="clp8-3"><path id="path17485-37" d="M 564.1,1054.8 H 660 v 26.2 h -95.9 z"/></clipPath><clipPath id="clp14-35"><path id="path17527-8" d="m 584.85,1073.4 -6.11,3.6 -8.06,-4.7 2.49,-1.5 5.59,3.3 3.63,-2.1 2.46,1.4"/></clipPath><clipPath id="clp13-6"><path id="path17521-83" d="M 564.1,1054.8 H 660 v 26.2 h -95.9 z"/></clipPath><clipPath id="clp19-4"><path id="path17561-7" d="m 573.17,1064.4 5.61,-3.2 5.6,3.2 -0.28,0.2 -5.35,-3.1 -5.3,3.1 -0.28,-0.2"/></clipPath><clipPath id="clp18-4"><path id="path17555-7" d="M 564.1,1054.8 H 660 v 26.2 h -95.9 z"/></clipPath><clipPath id="clp24-8"><path id="path17595-9" d="m 584.38,1064.4 v 3.4 l -0.28,-0.2 v -3.1 l 0.28,-0.1"/></clipPath><clipPath id="clp23-5"><path id="path17589-3" d="M 564.1,1054.8 H 660 v 26.2 h -95.9 z"/></clipPath><clipPath id="clp29-0"><path id="path17629-7" d="m 578.75,1063.3 v 4.3 l -3.77,2.2 v -4.4 l 3.77,-2.1"/></clipPath><clipPath id="clp28-4"><path id="path17623-7" d="M 564.1,1054.8 H 660 v 26.2 h -95.9 z"/></clipPath><clipPath id="clp34-2"><path id="path17663-8" d="m 578.75,1067.6 8.09,4.7 v -9.3 l -8.06,-4.7 v 2.9 l 5.6,3.2 v 3.4 l -1.83,-1.1 v -1.3 l -3.8,-2.1 v 4.3"/></clipPath><clipPath id="clp33-46"><path id="path17657-1" d="M 564.1,1054.8 H 660 v 26.2 h -95.9 z"/></clipPath><clipPath id="clp39-8"><path id="path17697-4" d="m 578.75,1067.6 -3.77,2.2 3.77,2.2 3.54,-2.1 4.28,2.5 0.27,-0.1 -8.09,-4.7"/></clipPath><clipPath id="clp38-9"><path id="path17691-5" d="M 564.1,1054.8 H 660 v 26.2 h -95.9 z"/></clipPath><clipPath id="clp44-0"><path id="path17731-6" d="m 570.68,1072.3 -0.01,-9.3 8.11,-4.7 v 2.9 l -5.61,3.2 v 6.4 l -2.49,1.5"/></clipPath><clipPath id="clp43-6"><path id="path17725-4" d="M 564.1,1054.8 H 660 v 26.2 h -95.9 z"/></clipPath><clipPath id="clipPath107145-1"><path id="path107147-6" d="M 564.1,1054.8 H 660 v 26.2 h -95.9 z"/></clipPath><clipPath id="clipPath107115-8"><path id="path107117-9" d="M 564.1,1054.8 H 660 v 26.2 h -95.9 z"/></clipPath><clipPath id="clipPath107100-1"><path id="path107102-24" d="M 564.1,1054.8 H 660 v 26.2 h -95.9 z"/></clipPath><clipPath id="clipPath107085-5"><path id="path107087-4" d="M 564.1,1054.8 H 660 v 26.2 h -95.9 z"/></clipPath><clipPath id="clipPath107054-1"><path id="path107056-4" d="M 564.1,1054.8 H 660 v 26.2 h -95.9 z"/></clipPath><clipPath id="clipPath107151-4"><path id="path107153-2" d="m 578.75,1067.6 -3.77,2.2 3.77,2.2 3.54,-2.1 4.28,2.5 0.27,-0.1 -8.09,-4.7"/></clipPath><clipPath id="clipPath107121-4"><path id="path107123-0" d="m 578.75,1063.3 v 4.3 l -3.77,2.2 v -4.4 l 3.77,-2.1"/></clipPath><clipPath id="clipPath107106-8"><path id="path107108-5" d="m 584.38,1064.4 v 3.4 l -0.28,-0.2 v -3.1 l 0.28,-0.1"/></clipPath><clipPath id="clipPath107091-9"><path id="path107093-3" d="m 573.17,1064.4 5.61,-3.2 5.6,3.2 -0.28,0.2 -5.35,-3.1 -5.3,3.1 -0.28,-0.2"/></clipPath><clipPath id="clipPath107060-6"><path id="path107062-8" d="m 582.39,1071.7 -3.63,2.1 v 0.3 l 3.63,-2.1 v -0.3"/></clipPath><filter style="color-interpolation-filters:sRGB" id="filter1318-5-8" width="1.035" height="1.035" x="-.018" y="-.018"><feGaussianBlur id="feGaussianBlur1320-8-0" stdDeviation=".596"/></filter><radialGradient id="radialGradient1544-0-8" cx="15.305" cy="245.762" r="30.335" fx="15.305" fy="245.762" gradientTransform="matrix(1.3731852,-0.36795203,0.35116832,1.310578,-94.489276,-68.130925)" gradientUnits="userSpaceOnUse" xlink:href="#linearGradient1550"/><radialGradient id="radialGradient1560-0-0" cx="81.771" cy="260.263" r="15.368" fx="81.771" fy="260.263" gradientTransform="matrix(7.6737587,-4.4304466,3.6985151,6.4060097,-1446.3984,-1073.5222)" gradientUnits="userSpaceOnUse" xlink:href="#linearGradient1566"/><radialGradient id="radialGradient1781-8-0" cx="15.305" cy="245.762" r="30.335" fx="15.305" fy="245.762" gradientTransform="matrix(6.3395307,-1.6987098,1.6212251,6.0504945,-701.32397,-1270.0644)" gradientUnits="userSpaceOnUse" xlink:href="#linearGradient1550"/><clipPath id="clp9-7-5"><path id="path17491-5-6" d="m 582.39,1071.7 -3.63,2.1 v 0.3 l 3.63,-2.1 v -0.3"/></clipPath><clipPath id="clp8-2-4"><path id="path17485-3-9" d="M 564.1,1054.8 H 660 v 26.2 h -95.9 z"/></clipPath><clipPath id="clp14-3-3"><path id="path17527-9-7" d="m 584.85,1073.4 -6.11,3.6 -8.06,-4.7 2.49,-1.5 5.59,3.3 3.63,-2.1 2.46,1.4"/></clipPath><clipPath id="clp13-2-4"><path id="path17521-8-6" d="M 564.1,1054.8 H 660 v 26.2 h -95.9 z"/></clipPath><clipPath id="clp19-8-9"><path id="path17561-4-3" d="m 573.17,1064.4 5.61,-3.2 5.6,3.2 -0.28,0.2 -5.35,-3.1 -5.3,3.1 -0.28,-0.2"/></clipPath><clipPath id="clp18-2-2"><path id="path17555-4-8" d="M 564.1,1054.8 H 660 v 26.2 h -95.9 z"/></clipPath><clipPath id="clp24-5-5"><path id="path17595-0-8" d="m 584.38,1064.4 v 3.4 l -0.28,-0.2 v -3.1 l 0.28,-0.1"/></clipPath><clipPath id="clp23-3-8"><path id="path17589-8-4" d="M 564.1,1054.8 H 660 v 26.2 h -95.9 z"/></clipPath><clipPath id="clp29-3-3"><path id="path17629-1-7" d="m 578.75,1063.3 v 4.3 l -3.77,2.2 v -4.4 l 3.77,-2.1"/></clipPath><clipPath id="clp28-2-5"><path id="path17623-3-8" d="M 564.1,1054.8 H 660 v 26.2 h -95.9 z"/></clipPath><clipPath id="clp34-8-5"><path id="path17663-4-1" d="m 578.75,1067.6 8.09,4.7 v -9.3 l -8.06,-4.7 v 2.9 l 5.6,3.2 v 3.4 l -1.83,-1.1 v -1.3 l -3.8,-2.1 v 4.3"/></clipPath><clipPath id="clp33-4-4"><path id="path17657-0-6" d="M 564.1,1054.8 H 660 v 26.2 h -95.9 z"/></clipPath><clipPath id="clp39-2-1"><path id="path17697-5-5" d="m 578.75,1067.6 -3.77,2.2 3.77,2.2 3.54,-2.1 4.28,2.5 0.27,-0.1 -8.09,-4.7"/></clipPath><clipPath id="clp38-6-0"><path id="path17691-8-6" d="M 564.1,1054.8 H 660 v 26.2 h -95.9 z"/></clipPath><clipPath id="clp44-1-9"><path id="path17731-7-8" d="m 570.68,1072.3 -0.01,-9.3 8.11,-4.7 v 2.9 l -5.61,3.2 v 6.4 l -2.49,1.5"/></clipPath><clipPath id="clp43-3-1"><path id="path17725-2-0" d="M 564.1,1054.8 H 660 v 26.2 h -95.9 z"/></clipPath><clipPath id="clipPath107145-3-5"><path id="path107147-1-4" d="M 564.1,1054.8 H 660 v 26.2 h -95.9 z"/></clipPath><clipPath id="clipPath107115-4-6"><path id="path107117-4-3" d="M 564.1,1054.8 H 660 v 26.2 h -95.9 z"/></clipPath><clipPath id="clipPath107100-5-5"><path id="path107102-2-2" d="M 564.1,1054.8 H 660 v 26.2 h -95.9 z"/></clipPath><clipPath id="clipPath107085-2-8"><path id="path107087-5-3" d="M 564.1,1054.8 H 660 v 26.2 h -95.9 z"/></clipPath><clipPath id="clipPath107054-3-6"><path id="path107056-3-2" d="M 564.1,1054.8 H 660 v 26.2 h -95.9 z"/></clipPath><clipPath id="clipPath107151-6-8"><path id="path107153-8-6" d="m 578.75,1067.6 -3.77,2.2 3.77,2.2 3.54,-2.1 4.28,2.5 0.27,-0.1 -8.09,-4.7"/></clipPath><clipPath id="clipPath107121-7-1"><path id="path107123-8-3" d="m 578.75,1063.3 v 4.3 l -3.77,2.2 v -4.4 l 3.77,-2.1"/></clipPath><clipPath id="clipPath107106-1-1"><path id="path107108-1-6" d="m 584.38,1064.4 v 3.4 l -0.28,-0.2 v -3.1 l 0.28,-0.1"/></clipPath><clipPath id="clipPath107091-2-3"><path id="path107093-1-8" d="m 573.17,1064.4 5.61,-3.2 5.6,3.2 -0.28,0.2 -5.35,-3.1 -5.3,3.1 -0.28,-0.2"/></clipPath><clipPath id="clipPath107060-0-4"><path id="path107062-3-7" d="m 582.39,1071.7 -3.63,2.1 v 0.3 l 3.63,-2.1 v -0.3"/></clipPath><filter style="color-interpolation-filters:sRGB" id="filter2742" width="1.489" height="2.246" x="-.245" y="-.623"><feGaussianBlur id="feGaussianBlur2744" stdDeviation="3.54"/></filter><filter style="color-interpolation-filters:sRGB" id="filter2991" width="1" height="1.001" x="0" y="-.001"><feGaussianBlur id="feGaussianBlur2965" in="SourceAlpha" result="result0" stdDeviation=".014"/><feMorphology id="feMorphology2967" in="SourceAlpha" radius="100" result="result1"/><feGaussianBlur id="feGaussianBlur2969" in="result1" stdDeviation=".01"/><feColorMatrix id="feColorMatrix2971" result="result91" values="1 0 0 0 0 0 1 0 0 0 0 0 1 0 0 0 0 0 0.3 0"/><feComposite id="feComposite2973" in="result0" in2="result91" operator="out" result="result2"/><feGaussianBlur id="feGaussianBlur2975" result="result4" stdDeviation="1.7"/><feDiffuseLighting id="feDiffuseLighting2979" surfaceScale="10"><feDistantLight id="feDistantLight2977" azimuth="225" elevation="45"/></feDiffuseLighting><feBlend id="feBlend2981" in2="SourceGraphic" mode="multiply"/><feComposite id="feComposite2983" in2="SourceAlpha" operator="in" result="result3"/><feSpecularLighting id="feSpecularLighting2987" in="result4" lighting-color="#26a269" specularConstant="0" specularExponent="1" surfaceScale="2.268"><fePointLight id="fePointLight2993" x="-17"/></feSpecularLighting><feComposite id="feComposite2989" in2="result3" operator="atop"/></filter><filter id="filter3017" width="1.032" height="1.129" x="-.016" y="-.064" style="color-interpolation-filters:sRGB"><feGaussianBlur id="feGaussianBlur2995" result="result1" stdDeviation="1.775"/><feComposite id="feComposite2997" in="result1" in2="result1" operator="in" result="result4"/><feGaussianBlur id="feGaussianBlur2999" in="result4" result="result6" stdDeviation="7"/><feComposite id="feComposite3001" in="result6" in2="result4" operator="over" result="result8"/><feComposite id="feComposite3003" in="result6" in2="result8" operator="in" result="fbSourceGraphic"/><feSpecularLighting id="feSpecularLighting3007" in="fbSourceGraphic" lighting-color="#fff" result="result1" specularConstant="2" specularExponent="45" surfaceScale="2.5"><fePointLight id="fePointLight3005" x="-5000" y="-10000" z="20000"/></feSpecularLighting><feComposite id="feComposite3009" in="result1" in2="fbSourceGraphic" operator="in" result="result2"/><feComposite id="feComposite3011" in="fbSourceGraphic" in2="result2" k1="0" k2="1.2" k3="1.5" k4="0" operator="arithmetic" result="result4"/><feComposite id="feComposite3013" in2="result4" operator="over" result="result9"/><feBlend id="feBlend3015" in2="result9" mode="screen"/></filter><filter style="color-interpolation-filters:sRGB" id="filter3390" width="1.026" height="1.112" x="-.013" y="-.056"><feGaussianBlur id="feGaussianBlur3392" stdDeviation="3.831"/></filter><rect id="rect1702" width="737.343" height="365.832" x="0" y="0"/><rect id="rect1704" width="737.343" height="365.832" x="0" y="0"/><rect id="rect1706" width="737.343" height="365.832" x="0" y="0"/><polyline id="polyline1708" points="32.162 78.613 32.162 238.962 618.639 238.962 618.639 78.613"/></defs><metadata id="metadata5"/><g id="layer1" transform="translate(-522.61554,-128.44061)"><rect style="fill:#000;fill-opacity:1;stroke:none;stroke-width:427.861;stroke-linecap:square;paint-order:markers fill stroke" id="rect2360" width="129.17" height="129.383" x="522.616" y="128.441" ry="27.97"/><g id="g2356"><g id="g2330" style="fill:#fff"><path d="m 554.27137,158.03838 h 5.66207 v 11.60196 h 12.62432 v -11.60196 h 5.66207 v 29.04547 h -5.66207 v -12.25103 h -12.62432 v 12.25103 h -5.66207 z" style="font-weight:700;font-size:40.5663px;font-family:'Product Sans';-inkscape-font-specification:'Product Sans Bold';fill:#fff;stroke-width:3.43732" id="path2308"/><path d="M 581.23952,187.08385 Z" style="font-weight:700;font-size:40.5663px;font-family:'Product Sans';-inkscape-font-specification:'Product Sans Bold';fill:#fff;stroke-width:3.43732" id="path2310"/><path d="m 593.48633,158.03838 h 5.57819 l 9.18513,15.37462 h 0.33553 l 9.18514,-15.37462 h 5.62013 v 29.04547 h -5.62013 v -14.31991 l 0.33553,-4.86795 h -0.33553 l -7.63331,13.02178 h -3.39724 l -7.67525,-13.02178 h -0.33553 l 0.33553,4.86795 v 14.31991 h -5.57819 z" style="font-weight:700;font-size:40.5663px;font-family:'Product Sans';-inkscape-font-specification:'Product Sans Bold';fill:#fff;stroke-width:3.43732" id="path2312"/></g><g id="g2344"><path d="m 608.85909,228.81908 q -1.97246,0 -3.77339,-0.52736 -1.80094,-0.52736 -3.30171,-1.58209 -1.50077,-1.05472 -2.61565,-2.55567 -1.11485,-1.54152 -1.75804,-3.56984 l 5.44566,-2.02831 q 0.60032,2.19058 2.1011,3.65097 1.50077,1.41982 3.94489,1.41982 0.90047,0 1.71518,-0.20284 0.85759,-0.24339 1.50077,-0.64906 0.68608,-0.44623 1.072,-1.09529 0.3859,-0.64906 0.3859,-1.50095 0,-0.81133 -0.30015,-1.46039 -0.30015,-0.64906 -1.02911,-1.21699 -0.68606,-0.56792 -1.84381,-1.09529 -1.11485,-0.52736 -2.78716,-1.09529 l -1.88667,-0.64906 q -1.24352,-0.40566 -2.5299,-1.09529 -1.24349,-0.68962 -2.2726,-1.66321 -1.0291,-0.9736 -1.71517,-2.27172 -0.6432,-1.33869 -0.6432,-3.0019 0,-1.70379 0.68608,-3.16418 0.72894,-1.50095 2.01532,-2.59624 1.32928,-1.13585 3.13019,-1.74435 1.84382,-0.64906 4.07354,-0.64906 2.31549,0 3.98778,0.60849 1.71518,0.56793 2.87292,1.50096 1.20062,0.89246 1.92957,1.98775 0.72895,1.09529 1.07198,2.06888 l -5.10264,2.02831 q -0.42879,-1.21699 -1.58653,-2.19058 -1.11487,-0.97359 -3.08732,-0.97359 -1.8867,0 -3.13019,0.85189 -1.2435,0.81133 -1.2435,2.15002 0,1.29812 1.20063,2.23114 1.20062,0.89246 3.81627,1.74435 l 1.92956,0.6085 q 1.84381,0.60849 3.34459,1.41982 1.54365,0.77076 2.61564,1.86605 1.11486,1.09529 1.67228,2.51511 0.60032,1.37925 0.60032,3.20474 0,2.27171 -0.98622,3.93493 -0.94335,1.62265 -2.44413,2.67737 -1.50078,1.05473 -3.38746,1.58209 -1.88671,0.52736 -3.68762,0.52736 z" style="font-weight:700;font-size:40.5663px;font-family:'Product Sans';-inkscape-font-specification:'Product Sans Bold';fill:#fff;stroke-width:3.47555" id="path2318"/><g id="g2337"><path d="m 566.26151,228.81908 q -3.16459,0 -5.89404,-1.17642 -2.68989,-1.17642 -4.66775,-3.20474 -1.97788,-2.06888 -3.12503,-4.82739 -1.10761,-2.79907 -1.10761,-5.96324 0,-3.16418 1.10761,-5.92268 1.14715,-2.79908 3.12503,-4.82739 1.97786,-2.06888 4.66775,-3.24531 2.72945,-1.17642 5.89404,-1.17642 3.16457,0 5.85447,1.17642 2.72946,1.17643 4.70732,3.24531 1.97787,2.02831 3.08547,4.82739 1.14716,2.7585 1.14716,5.92268 0,3.16417 -1.14716,5.96324 -1.1076,2.75851 -3.08547,4.82739 -1.97786,2.02832 -4.70732,3.20474 -2.6899,1.17642 -5.85447,1.17642 z m 0,-5.19248 q 1.97786,0 3.67883,-0.7302 1.74051,-0.73019 3.00634,-2.02831 1.3054,-1.29812 2.01743,-3.12361 0.75158,-1.86605 0.75158,-4.09719 0,-2.23115 -0.75158,-4.05663 -0.71203,-1.86605 -2.01743,-3.16418 -1.26583,-1.29812 -3.00634,-2.02831 -1.70097,-0.73019 -3.67883,-0.73019 -1.97787,0 -3.71839,0.73019 -1.70096,0.73019 -3.00635,2.02831 -1.26583,1.29813 -2.01742,3.16418 -0.71204,1.82548 -0.71204,4.05663 0,2.23114 0.71204,4.09719 0.75159,1.82549 2.01742,3.12361 1.30539,1.29812 3.00635,2.02831 1.74052,0.7302 3.71839,0.7302 z" style="font-weight:700;font-size:40.5663px;font-family:'Product Sans';-inkscape-font-specification:'Product Sans Bold';fill:#fff;stroke-width:3.3382" id="path2314"/><path d="M 582.51949,228.17002 Z" style="font-weight:700;font-size:40.5663px;font-family:'Product Sans';-inkscape-font-specification:'Product Sans Bold';fill:#f60;stroke-width:3.3382" id="path2316"/><rect style="fill:#5b8aee;fill-opacity:1;stroke:none;stroke-width:89.9999;stroke-linecap:square;paint-order:markers fill stroke" id="rect2332" width="21.248" height="4.944" x="555.483" y="231.567"/></g></g></g></g></svg>